<mxfile host="app.diagrams.net" modified="2022-07-13T19:31:44.069Z" agent="5.0 (Windows NT 10.0; Win64; x64) AppleWebKit/537.36 (KHTML, like Gecko) Chrome/103.0.0.0 Safari/537.36" etag="w283qrEtuBCKWkpCZAH-" version="20.1.1" type="github">
  <diagram id="0R2ht4pweAc41cvP688j" name="Page-1">
    <mxGraphModel dx="1888" dy="635" grid="1" gridSize="10" guides="1" tooltips="1" connect="1" arrows="1" fold="1" page="1" pageScale="1" pageWidth="850" pageHeight="1100" math="0" shadow="0">
      <root>
        <mxCell id="0" />
        <mxCell id="1" parent="0" />
        <mxCell id="j8CXmkcdGuTl3-NZ6Nu5-68" value="Availability Zone" style="fillColor=none;strokeColor=#147EBA;dashed=1;verticalAlign=top;fontStyle=0;fontColor=#147EBA;fontSize=12;" vertex="1" parent="1">
          <mxGeometry x="200" y="110" width="260" height="530" as="geometry" />
        </mxCell>
        <mxCell id="j8CXmkcdGuTl3-NZ6Nu5-29" value="Internet&lt;br&gt;Gateway" style="text;html=1;align=center;verticalAlign=middle;resizable=0;points=[];autosize=1;strokeColor=none;fillColor=none;" vertex="1" parent="1">
          <mxGeometry x="-10" y="260" width="70" height="40" as="geometry" />
        </mxCell>
        <mxCell id="j8CXmkcdGuTl3-NZ6Nu5-9" value="VPC" style="points=[[0,0],[0.25,0],[0.5,0],[0.75,0],[1,0],[1,0.25],[1,0.5],[1,0.75],[1,1],[0.75,1],[0.5,1],[0.25,1],[0,1],[0,0.75],[0,0.5],[0,0.25]];outlineConnect=0;gradientColor=none;html=1;whiteSpace=wrap;fontSize=12;fontStyle=0;container=1;pointerEvents=0;collapsible=0;recursiveResize=0;shape=mxgraph.aws4.group;grIcon=mxgraph.aws4.group_vpc;strokeColor=#248814;fillColor=none;verticalAlign=top;align=left;spacingLeft=30;fontColor=#AAB7B8;dashed=0;" vertex="1" parent="1">
          <mxGeometry x="60" y="120" width="720" height="520" as="geometry" />
        </mxCell>
        <mxCell id="j8CXmkcdGuTl3-NZ6Nu5-70" style="edgeStyle=orthogonalEdgeStyle;rounded=0;orthogonalLoop=1;jettySize=auto;html=1;fontSize=12;" edge="1" parent="j8CXmkcdGuTl3-NZ6Nu5-9" source="j8CXmkcdGuTl3-NZ6Nu5-15" target="j8CXmkcdGuTl3-NZ6Nu5-40">
          <mxGeometry relative="1" as="geometry">
            <Array as="points">
              <mxPoint x="-5" y="20" />
            </Array>
          </mxGeometry>
        </mxCell>
        <mxCell id="j8CXmkcdGuTl3-NZ6Nu5-15" value="" style="sketch=0;outlineConnect=0;fontColor=#232F3E;gradientColor=none;fillColor=#4D27AA;strokeColor=none;dashed=0;verticalLabelPosition=bottom;verticalAlign=top;align=center;html=1;fontSize=12;fontStyle=0;aspect=fixed;pointerEvents=1;shape=mxgraph.aws4.internet_gateway;" vertex="1" parent="j8CXmkcdGuTl3-NZ6Nu5-9">
          <mxGeometry x="-30" y="70" width="50" height="50" as="geometry" />
        </mxCell>
        <mxCell id="j8CXmkcdGuTl3-NZ6Nu5-30" value="Router" style="text;html=1;align=center;verticalAlign=middle;resizable=0;points=[];autosize=1;strokeColor=none;fillColor=none;" vertex="1" parent="j8CXmkcdGuTl3-NZ6Nu5-9">
          <mxGeometry x="415" y="57.5" width="60" height="30" as="geometry" />
        </mxCell>
        <mxCell id="j8CXmkcdGuTl3-NZ6Nu5-40" value="" style="sketch=0;outlineConnect=0;fontColor=#232F3E;gradientColor=none;fillColor=#4D27AA;strokeColor=none;dashed=0;verticalLabelPosition=bottom;verticalAlign=top;align=center;html=1;fontSize=12;fontStyle=0;aspect=fixed;pointerEvents=1;shape=mxgraph.aws4.customer_gateway;" vertex="1" parent="j8CXmkcdGuTl3-NZ6Nu5-9">
          <mxGeometry x="420" width="50" height="50" as="geometry" />
        </mxCell>
        <mxCell id="j8CXmkcdGuTl3-NZ6Nu5-55" value="Public subnet" style="points=[[0,0],[0.25,0],[0.5,0],[0.75,0],[1,0],[1,0.25],[1,0.5],[1,0.75],[1,1],[0.75,1],[0.5,1],[0.25,1],[0,1],[0,0.75],[0,0.5],[0,0.25]];outlineConnect=0;gradientColor=none;html=1;whiteSpace=wrap;fontSize=12;fontStyle=0;container=0;pointerEvents=0;collapsible=0;recursiveResize=0;shape=mxgraph.aws4.group;grIcon=mxgraph.aws4.group_security_group;grStroke=0;strokeColor=#248814;fillColor=#E9F3E6;verticalAlign=top;align=left;spacingLeft=30;fontColor=#248814;dashed=0;" vertex="1" parent="j8CXmkcdGuTl3-NZ6Nu5-9">
          <mxGeometry x="523" y="57.5" width="140" height="130" as="geometry" />
        </mxCell>
        <mxCell id="j8CXmkcdGuTl3-NZ6Nu5-56" value="&lt;font style=&quot;font-size: 12px;&quot;&gt;NAT Gateway&lt;/font&gt;" style="text;html=1;align=center;verticalAlign=middle;resizable=0;points=[];autosize=1;strokeColor=none;fillColor=none;fontSize=8;" vertex="1" parent="j8CXmkcdGuTl3-NZ6Nu5-9">
          <mxGeometry x="530" y="160" width="100" height="30" as="geometry" />
        </mxCell>
        <mxCell id="j8CXmkcdGuTl3-NZ6Nu5-58" value="" style="sketch=0;outlineConnect=0;fontColor=#232F3E;gradientColor=none;fillColor=#4D27AA;strokeColor=none;dashed=0;verticalLabelPosition=bottom;verticalAlign=top;align=center;html=1;fontSize=12;fontStyle=0;aspect=fixed;pointerEvents=1;shape=mxgraph.aws4.nat_gateway;" vertex="1" parent="j8CXmkcdGuTl3-NZ6Nu5-9">
          <mxGeometry x="550" y="100" width="60" height="60" as="geometry" />
        </mxCell>
        <mxCell id="j8CXmkcdGuTl3-NZ6Nu5-60" value="Private subnet" style="points=[[0,0],[0.25,0],[0.5,0],[0.75,0],[1,0],[1,0.25],[1,0.5],[1,0.75],[1,1],[0.75,1],[0.5,1],[0.25,1],[0,1],[0,0.75],[0,0.5],[0,0.25]];outlineConnect=0;gradientColor=none;html=1;whiteSpace=wrap;fontSize=12;fontStyle=0;container=1;pointerEvents=0;collapsible=0;recursiveResize=0;shape=mxgraph.aws4.group;grIcon=mxgraph.aws4.group_security_group;grStroke=0;strokeColor=#147EBA;fillColor=#E6F2F8;verticalAlign=top;align=left;spacingLeft=30;fontColor=#147EBA;dashed=0;" vertex="1" parent="j8CXmkcdGuTl3-NZ6Nu5-9">
          <mxGeometry x="170" y="320" width="190" height="170" as="geometry" />
        </mxCell>
        <mxCell id="j8CXmkcdGuTl3-NZ6Nu5-61" value="" style="sketch=0;outlineConnect=0;fontColor=#232F3E;gradientColor=none;fillColor=#4D27AA;strokeColor=none;dashed=0;verticalLabelPosition=bottom;verticalAlign=top;align=center;html=1;fontSize=12;fontStyle=0;aspect=fixed;pointerEvents=1;shape=mxgraph.aws4.route_table;" vertex="1" parent="j8CXmkcdGuTl3-NZ6Nu5-60">
          <mxGeometry x="52.11" y="20" width="30.79" height="30" as="geometry" />
        </mxCell>
        <mxCell id="j8CXmkcdGuTl3-NZ6Nu5-62" value="EC2 private&lt;br&gt;&lt;br&gt;&lt;font style=&quot;font-size: 7px;&quot;&gt;Security Group&lt;/font&gt;" style="points=[[0,0],[0.25,0],[0.5,0],[0.75,0],[1,0],[1,0.25],[1,0.5],[1,0.75],[1,1],[0.75,1],[0.5,1],[0.25,1],[0,1],[0,0.75],[0,0.5],[0,0.25]];outlineConnect=0;gradientColor=none;html=1;whiteSpace=wrap;fontSize=12;fontStyle=0;container=1;pointerEvents=0;collapsible=0;recursiveResize=0;shape=mxgraph.aws4.group;grIcon=mxgraph.aws4.group_ec2_instance_contents;strokeColor=#D86613;fillColor=none;verticalAlign=top;align=left;spacingLeft=30;fontColor=#D86613;dashed=0;" vertex="1" parent="j8CXmkcdGuTl3-NZ6Nu5-9">
          <mxGeometry x="200" y="370" width="85" height="60" as="geometry" />
        </mxCell>
        <mxCell id="j8CXmkcdGuTl3-NZ6Nu5-63" value="Public subnet" style="points=[[0,0],[0.25,0],[0.5,0],[0.75,0],[1,0],[1,0.25],[1,0.5],[1,0.75],[1,1],[0.75,1],[0.5,1],[0.25,1],[0,1],[0,0.75],[0,0.5],[0,0.25]];outlineConnect=0;gradientColor=none;html=1;whiteSpace=wrap;fontSize=12;fontStyle=0;container=1;pointerEvents=0;collapsible=0;recursiveResize=0;shape=mxgraph.aws4.group;grIcon=mxgraph.aws4.group_security_group;grStroke=0;strokeColor=#248814;fillColor=#E9F3E6;verticalAlign=top;align=left;spacingLeft=30;fontColor=#248814;dashed=0;" vertex="1" parent="j8CXmkcdGuTl3-NZ6Nu5-9">
          <mxGeometry x="165" y="70" width="195" height="200" as="geometry" />
        </mxCell>
        <mxCell id="j8CXmkcdGuTl3-NZ6Nu5-64" value="Bastion Host&lt;br&gt;&lt;br&gt;&lt;font style=&quot;font-size: 8px;&quot;&gt;Security Group&lt;/font&gt;" style="points=[[0,0],[0.25,0],[0.5,0],[0.75,0],[1,0],[1,0.25],[1,0.5],[1,0.75],[1,1],[0.75,1],[0.5,1],[0.25,1],[0,1],[0,0.75],[0,0.5],[0,0.25]];outlineConnect=0;gradientColor=none;html=1;whiteSpace=wrap;fontSize=12;fontStyle=0;container=1;pointerEvents=0;collapsible=0;recursiveResize=0;shape=mxgraph.aws4.group;grIcon=mxgraph.aws4.group_ec2_instance_contents;strokeColor=#D86613;fillColor=none;verticalAlign=top;align=left;spacingLeft=30;fontColor=#D86613;dashed=0;" vertex="1" parent="j8CXmkcdGuTl3-NZ6Nu5-63">
          <mxGeometry x="95" y="120" width="90" height="70" as="geometry" />
        </mxCell>
        <mxCell id="j8CXmkcdGuTl3-NZ6Nu5-65" value="" style="sketch=0;outlineConnect=0;fontColor=#232F3E;gradientColor=none;fillColor=#4D27AA;strokeColor=none;dashed=0;verticalLabelPosition=bottom;verticalAlign=top;align=center;html=1;fontSize=12;fontStyle=0;aspect=fixed;pointerEvents=1;shape=mxgraph.aws4.nat_gateway;" vertex="1" parent="j8CXmkcdGuTl3-NZ6Nu5-9">
          <mxGeometry x="207.5" y="110" width="60" height="60" as="geometry" />
        </mxCell>
        <mxCell id="j8CXmkcdGuTl3-NZ6Nu5-66" value="&lt;font style=&quot;font-size: 12px;&quot;&gt;NAT Gateway&lt;/font&gt;" style="text;html=1;align=center;verticalAlign=middle;resizable=0;points=[];autosize=1;strokeColor=none;fillColor=none;fontSize=8;" vertex="1" parent="j8CXmkcdGuTl3-NZ6Nu5-9">
          <mxGeometry x="170" y="160" width="100" height="30" as="geometry" />
        </mxCell>
        <mxCell id="j8CXmkcdGuTl3-NZ6Nu5-67" value="" style="edgeStyle=orthogonalEdgeStyle;rounded=0;orthogonalLoop=1;jettySize=auto;html=1;fontSize=12;" edge="1" parent="j8CXmkcdGuTl3-NZ6Nu5-9" source="j8CXmkcdGuTl3-NZ6Nu5-40" target="j8CXmkcdGuTl3-NZ6Nu5-65">
          <mxGeometry relative="1" as="geometry" />
        </mxCell>
        <mxCell id="j8CXmkcdGuTl3-NZ6Nu5-69" value="Availability zone" style="sketch=0;outlineConnect=0;gradientColor=none;html=1;whiteSpace=wrap;fontSize=12;fontStyle=0;shape=mxgraph.aws4.group;grIcon=mxgraph.aws4.group_availability_zone;strokeColor=#545B64;fillColor=none;verticalAlign=top;align=left;spacingLeft=30;fontColor=#545B64;dashed=1;" vertex="1" parent="j8CXmkcdGuTl3-NZ6Nu5-9">
          <mxGeometry x="480" y="-20" width="230" height="540" as="geometry" />
        </mxCell>
        <mxCell id="j8CXmkcdGuTl3-NZ6Nu5-73" style="edgeStyle=orthogonalEdgeStyle;rounded=0;orthogonalLoop=1;jettySize=auto;html=1;fontSize=12;entryX=0.522;entryY=0.241;entryDx=0;entryDy=0;entryPerimeter=0;" edge="1" parent="j8CXmkcdGuTl3-NZ6Nu5-9" source="j8CXmkcdGuTl3-NZ6Nu5-40" target="j8CXmkcdGuTl3-NZ6Nu5-69">
          <mxGeometry relative="1" as="geometry">
            <mxPoint x="740" y="25" as="targetPoint" />
            <Array as="points">
              <mxPoint x="600" y="30" />
            </Array>
          </mxGeometry>
        </mxCell>
        <mxCell id="j8CXmkcdGuTl3-NZ6Nu5-74" value="" style="edgeStyle=orthogonalEdgeStyle;rounded=0;orthogonalLoop=1;jettySize=auto;html=1;fontSize=12;" edge="1" parent="j8CXmkcdGuTl3-NZ6Nu5-9" source="j8CXmkcdGuTl3-NZ6Nu5-62" target="j8CXmkcdGuTl3-NZ6Nu5-66">
          <mxGeometry relative="1" as="geometry">
            <Array as="points">
              <mxPoint x="220" y="330" />
              <mxPoint x="220" y="330" />
            </Array>
          </mxGeometry>
        </mxCell>
        <mxCell id="j8CXmkcdGuTl3-NZ6Nu5-31" value="Internet" style="aspect=fixed;perimeter=ellipsePerimeter;html=1;align=center;shadow=0;dashed=0;spacingTop=3;image;image=img/lib/active_directory/internet_cloud.svg;strokeColor=#3333FF;" vertex="1" parent="1">
          <mxGeometry x="-95" y="90" width="95.24" height="60" as="geometry" />
        </mxCell>
        <mxCell id="j8CXmkcdGuTl3-NZ6Nu5-32" style="edgeStyle=orthogonalEdgeStyle;rounded=0;orthogonalLoop=1;jettySize=auto;html=1;" edge="1" parent="1" source="j8CXmkcdGuTl3-NZ6Nu5-15">
          <mxGeometry relative="1" as="geometry">
            <mxPoint x="-30" y="160" as="targetPoint" />
            <Array as="points">
              <mxPoint x="-30" y="245" />
            </Array>
          </mxGeometry>
        </mxCell>
      </root>
    </mxGraphModel>
  </diagram>
</mxfile>
